<?xml version="1.0" encoding="UTF-8"?>
<svg id="Calque_2" xmlns="http://www.w3.org/2000/svg" version="1.1" viewBox="0 0 105.8 105.8">
  <!-- Generator: Adobe Illustrator 30.2.1, SVG Export Plug-In . SVG Version: 2.1.1 Build 1)  -->
  <defs>
    <style>
      .st0 {
        fill: #ff9e1b;
      }
    </style>
  </defs>
  <path class="st0" d="M57.4,4.2C26.9,1.4,1.4,26.9,4.2,57.4c2.1,23.4,20.9,42.2,44.3,44.3,30.5,2.7,56-22.7,53.2-53.2-2.1-23.4-20.9-42.2-44.3-44.3ZM72,85.8c-4.9,6.8-11.2,10.9-17.7,11.4v-15.7c6.2.2,12.2,1.6,17.7,4.3ZM49.7,69.5v7.4c-6.4.4-12.6,2.1-18.3,4.9-4.6-8.1-7.1-18.4-7.1-29s2.5-21,7.2-29.2c5.7,2.8,11.8,4.4,18.2,4.8v7.5c-7.2,4.1-9,12.5-9,12.6h0c2.4.5,4.8-.6,6-2.8s3.3-5.1,6.6-6.5c5-2.1,11.6-.8,19.6,3.8-1,3.3-3.8,10.8-9.7,13.3-4.1,1.7-9.2.9-15.1-2.6,4.9-4.2,10.8-6.6,17.4-7.1,1.3,0,2.3-1.1,2.3-2.4h0c0-1.2-1.1-2.2-2.3-2.2-27,1.6-34,30.4-34.1,30.7h0c2.4.5,4.9-.8,5.8-3.1,1.3-3.3,3.6-8.2,7.5-12.6,7.7,4.8,14.5,6,20.3,3.5,9.9-4.2,12.7-17.6,12.8-18.2l.3-1.6-1.4-.8c-8.7-5.3-16.2-7.3-22.4-5.9v-5.6c7.1-.2,13.8-1.9,20.1-4.9,4.6,8.1,7.1,18.4,7.1,29.2s-2.5,20.9-7,29c-6.3-3.1-13.2-4.8-20.2-5v-7.4c0-1.2-1-2.3-2.3-2.3h0c-1.3,0-2.3,1-2.3,2.3ZM29.8,88c1.2,1.8,2.6,3.4,4,4.9-2.1-1-4.2-2.2-6.1-3.6.7-.5,1.4-.9,2.1-1.4ZM27.5,21.5c-5,8.8-7.7,19.9-7.7,31.4s2.7,22.4,7.6,31.2c-1.2.7-2.4,1.5-3.5,2.3-9.8-8.5-15.3-20.7-15.3-33.5s5.7-25.2,15.5-33.7c1.1.8,2.2,1.6,3.4,2.3ZM34,19.8c4.5-6.2,9.9-10,15.7-11v15.1c-5.5-.4-10.8-1.8-15.7-4.1ZM27.9,16.3c1.9-1.3,3.9-2.4,5.9-3.4-1.4,1.4-2.7,3-3.9,4.8-.7-.4-1.4-.9-2-1.3ZM75.9,17.6c-1.2-1.7-2.5-3.3-3.9-4.8,2.1,1,4,2.1,5.9,3.4-.7.5-1.4.9-2,1.3ZM78.1,89.4c-1.9,1.4-4,2.5-6.1,3.6,1.4-1.5,2.8-3.1,4-4.9.7.4,1.4.9,2.1,1.4ZM81.9,86.4c-1.1-.8-2.3-1.6-3.5-2.3,4.9-8.8,7.6-19.8,7.6-31.2s-2.7-22.6-7.7-31.4c1.2-.7,2.3-1.5,3.4-2.3,9.9,8.5,15.5,20.7,15.5,33.7s-5.6,25.1-15.3,33.5ZM54.3,24.1v-15.4c6.5.5,12.7,4.4,17.6,11.2-5.5,2.6-11.4,4.1-17.6,4.3ZM49.7,81.6v15.4c-5.9-1-11.4-4.9-15.9-11.2,5-2.4,10.3-3.8,15.9-4.2Z"/>
</svg>