<?xml version="1.0" encoding="UTF-8"?>
<svg id="Calque_2" xmlns="http://www.w3.org/2000/svg" version="1.1" viewBox="0 0 105.8 105.8">
  <!-- Generator: Adobe Illustrator 30.2.1, SVG Export Plug-In . SVG Version: 2.1.1 Build 1)  -->
  <defs>
    <style>
      .st0 {
        fill: #ff9e1b;
      }
    </style>
  </defs>
  <path class="st0" d="M72,96.6l7.6-7.3-24.4-32.1v14c0,5.6,12.4,20.3,16.8,25.5h0ZM52.9,3.8l4.2.6c2.9.4,5.8.4,8.6,0l3.9-.5c1.3,0,2.3,1,2.3,2.3v11.1c0,1.3-1,2.3-2.3,2.3l-2.9.4c-3.2.5-6.4.4-9.6-.1l-1.9-.3v8.1c11.7,32.6,40.4,30.2,42.4,30,.1,0,.3,0,.4,0,1.3,0,2.3,1,2.3,2.3v40c0,1.3-1,2.3-2.3,2.3h-26.1c-.7,0-1.4-.3-1.8-.9-1.1-1.2-12.3-13.8-17.2-23.2-4.9,9.4-16.1,22-17.2,23.2-.4.5-1.1.9-1.8.9H7.8c-1.3,0-2.3-1-2.3-2.3v-40h0c0,0,0-.2,0-.3.1-1.3,1.3-2.2,2.5-2,0,0,30.4,3.8,42.5-29.9V5.2c0-1.2,1.3-1.9,2.3-1.4h0ZM67.3,8.5h0c-3.9.8-7.9.8-11.8,0h-.3c0,0,0,6.5,0,6.5h.8c3.7.8,7.6.8,11.3,0h0v-6.5ZM50.6,49.5v-10.8c-12.4,22-33.3,23.7-40.5,23.6v35.3h18.1l-6.7-6.4c-.9-.9-.9-2.2-.1-3.2l29.2-38.5h0ZM55.2,38.7v10.8l29.2,38.5c.8.9.7,2.3-.1,3.2l-6.7,6.4h18.1v-35.3c-7.2.1-28.1-1.6-40.5-23.6h0ZM26.2,89.3l7.6,7.3c4.4-5.1,16.8-19.8,16.8-25.5v-14l-24.4,32.1Z"/>
</svg>