<?xml version="1.0" encoding="UTF-8"?>
<svg id="Calque_2" xmlns="http://www.w3.org/2000/svg" version="1.1" viewBox="0 0 105.8 105.8">
  <!-- Generator: Adobe Illustrator 30.2.1, SVG Export Plug-In . SVG Version: 2.1.1 Build 1)  -->
  <defs>
    <style>
      .st0 {
        fill: #ff9e1b;
      }
    </style>
  </defs>
  <path class="st0" d="M101.6,17.1h0s-.5-.3-.5-.3c-1.1-.6-2.4-.7-3.6-.2-1.2.4-2.1,1.3-2.6,2.5l-.4,1.1c-.4,1-.7,1.6-1.1,2.6h-1.5c-3.2,0-4.3,1.3-4.7,2.3-.5,1.3,0,2.8,1.2,4l1.1,1c-2.4,4.1-5.1,7.9-8.1,11.4.6-4.2-2.1-8.4-6.3-9.5-2.2-.6-4.6-.3-6.6.9-2,1.2-3.4,3-4,5.2-.7,2.7,0,5.6,1.7,7.8-1.8.3-3.6.8-5.1,1.6,1-3.2,2-6.4,2.8-9.6l.3-1.1c1.8-6.5,3.6-13.3,3.1-20.3,0-.9-.1-1.8-.2-2.7-.2-1.9-1.6-3.4-3.4-3.8h-.3c-1.2-.3-2.5,0-3.5.6-1,.7-1.7,1.8-1.8,3.1-.2,1.8-.4,3-.7,4.7l-.8.2c-2.8.6-3.9,2.4-4,3.8-.1,1.5.8,2.8,2.4,3.4l.7.2c-1.2,4.5-2.9,8.8-4.8,12.9-.5-4.2-4.2-7.5-8.6-7.5s-8.6,3.9-8.6,8.6,1.4,5.4,3.7,7.1c-2.2,1-4.1,2.3-5.6,3.8.2-3.7.3-7.4.3-11.1v-1.2c0-6.8,0-13.8-2.2-20.4-.3-.9-.6-1.8-.9-2.5-.7-1.8-2.4-2.8-4.3-2.8h-.3c-1.2,0-2.4.6-3.2,1.6-.8,1-1.2,2.2-1,3.4v.5c.2,1.3.4,2.2.5,3.3-1.9.3-3.3,1.6-3.4,3.4-.2,2,1.3,3,2.2,3.5.1,0,.3.2.4.3l1.3.9c0,4.9-.5,9.7-1.3,14.4-1.6-3.9-6-6.2-10.2-5.1-4.6,1.2-7.3,6-6.1,10.6.6,2.2,2,4.1,4,5.2.4.2.9.5,1.3.6-3.4,2.7-5.5,6.2-6.2,10.3-.9,5,1.4,12.9,6.9,24.2-1.3.9-2.6,1.9-3.7,2.9-.4.3-.6.7-.6,1.2,0,.5.1.9.4,1.3.4.4.8.6,1.3.6s.8-.1,1.2-.4c9.1-8,23.7-12.7,39-12.7s29.9,4.8,39,12.7c.7.6,1.9.5,2.5-.2.3-.4.5-.8.4-1.3,0-.5-.2-.9-.6-1.2-3.2-2.8-7.1-5.3-11.5-7.4.3-1.3.7-2.6,1-3.9l.2-.6c2.3-9.2,4.8-18.6,9.9-26.3,2.4-3.6,4.6-7.2,6.7-10.8l.6-1c3.4-5.9,6.9-11.9,8.2-18.8.2-.9.3-1.8.5-2.7.3-1.8-.6-3.5-2.1-4.5ZM42.2,45c-2.8,0-5.1-2.3-5.1-5.1s2.3-5.1,5.1-5.1,5.1,2.3,5.1,5.1-2.3,5.1-5.1,5.1ZM77.7,41.6c-.4,1.3-1.2,2.4-2.4,3.1-1.2.7-2.5.9-3.9.5-1.3-.3-2.4-1.2-3.1-2.4-.7-1.2-.9-2.5-.5-3.9.6-2.2,2.6-3.8,4.9-3.8s.9,0,1.3.2c1.3.3,2.4,1.2,3.1,2.4s.9,2.5.5,3.9ZM58.4,54c3.3-3.9,8-5.4,14.5-4.6,3.5.4,6.8-.8,9.3-3.4,4.3-4.6,8-9.7,11.2-15.4.4-.7.3-1.6-.3-2.2l-2.2-2s0,0,0,0c.2,0,.6-.1,1.2-.1h2.5c.7,0,1.3-.4,1.6-1,.9-1.8,1.2-2.5,1.8-4,.1-.3.2-.6.4-.9,0-.2.3-.4.5-.5.2,0,.5,0,.7,0h.3c.3.3.5.6.5,1h0c-.1.8-.3,1.6-.4,2.5-1.3,6.3-4.6,12.1-7.9,17.7l-.6,1c-2,3.6-4.3,7.1-6.6,10.6-5.4,8.2-7.9,17.9-10.3,27.4-.3,1.3-.7,2.6-1,4-1-.4-2.1-.8-3.1-1.1-5.4-1.8-11.3-3-17.3-3.4.7-13.4,2.5-22,5.5-25.6ZM59.4,25.2c.2-.9-.3-1.8-1.1-2.1l-2-.8c.2-.1.5-.3,1-.4l1.9-.4c.7-.2,1.2-.7,1.4-1.4.5-2.4.7-3.7,1-6.1,0-.3.2-.5.4-.6.2-.1.4-.2.7-.1h.3c.4.1.6.4.7.8,0,.8.2,1.7.2,2.5.4,6.4-1.3,12.9-3,19.2l-.3,1.1c-1.3,4.7-2.8,9.6-4.5,14.4l-.3.4c-4.6,5.5-5.8,18.4-6.3,27.7-.9,0-1.7,0-2.5,0-4.9,0-9.6.4-14.2,1.3-2.4-11.9-2.6-19.9-.8-23.8,2.2-4.6,6.3-7.3,12.8-8.2,3.5-.5,6.4-2.5,8.1-5.7,2.9-5.5,5.2-11.5,6.8-17.7ZM15.9,49.9c-.7,1.2-1.8,2-3.1,2.4-1.3.3-2.7.2-3.9-.5h0c-1.2-.7-2-1.8-2.4-3.1-.4-1.3-.2-2.7.5-3.9.7-1.2,1.8-2,3.1-2.4.4-.1.9-.2,1.3-.2,2.2,0,4.3,1.5,4.9,3.8.4,1.3.2,2.7-.5,3.9ZM24.4,28.8c0-.6-.3-1.1-.8-1.4l-2-1.4c-.1,0-.2-.1-.3-.2h-.2c-.1-.2-.3-.3-.5-.4,0,0,.2,0,.4,0h1.4c.5-.1.9-.3,1.2-.7.3-.4.5-.8.4-1.3-.1-2.3-.3-3.2-.6-5.3v-.4c0-.2,0-.5.1-.7.2-.2.4-.3.6-.3h.3c.4,0,.7.2.8.5.3.7.6,1.5.9,2.3,2,6.1,2,12.8,2,19.3v1.2c0,6.2-.3,12.5-.9,18.8,0,.1,0,.2,0,.3-.9,4.9-.4,12.3,1.7,22.5-1.9.5-3.9,1-5.7,1.6-4,1.3-7.8,3.1-11.2,5.1-5-10.3-7.1-17.6-6.4-21.6.9-5,4.2-8.7,10.2-11.2,3.3-1.4,5.5-4.1,6.3-7.5,1.4-6.1,2.1-12.4,2-18.9Z"/>
</svg>