<?xml version="1.0" encoding="UTF-8"?>
<svg id="Calque_3" xmlns="http://www.w3.org/2000/svg" version="1.1" viewBox="0 0 105.8 105.8">
  <!-- Generator: Adobe Illustrator 30.2.1, SVG Export Plug-In . SVG Version: 2.1.1 Build 1)  -->
  <defs>
    <style>
      .st0 {
        fill: #19199e;
      }
    </style>
  </defs>
  <path class="st0" d="M53.2,1.1h-.1s0,0,0,0c0,0,0,0-.2,0C11.7,3,9.3,39.1,9.2,43.1c-.2.6,0,1.1.2,1.6,0,.1.2.3.2.4,0,0,0,0,.2.2,0,0,.2.2.2.2l27,23.5c-3.6,4-5.5,9-5.5,14.3,0,11.8,9.6,21.4,21.4,21.4s21.4-9.6,21.4-21.4-2-10.4-5.6-14.3l26.7-23.3c.2,0,.3-.2.4-.3h.1c0-.2,0-.2,0-.2.1-.1.2-.3.3-.5,0,0,0,0,0-.1,0-.2.1-.3.1-.5v-.2c0-1.7-.5-40.7-43.5-42.6ZM25.2,38.3h0s0,0,0,0c0,0,0,0,0,0ZM30.5,45.1l11.4,19.9c-.6.3-1.1.7-1.6,1.1l-25.6-22.3c4.9-3.3,11.5-2.8,15.8,1.3ZM50.8,44.7v17.3c-1.7.2-3.4.6-5.1,1.2l-10.9-18.9c4.7-3.5,11.4-3.3,15.9.4ZM34.2,39.6c.3-7.8,2.7-24.9,16.6-33v33c-5.1-2.8-11.5-2.8-16.6,0ZM43.8,6.5c-11.5,9.9-13.5,25.9-13.8,33.2-.6-.4-1.3-.7-2-.9-.1,0-.2,0-.3-.1h-.1c-.8-.3-1.5-.5-2.2-.7h-.1s0,0,0,0c-.7-.1-1.4-.2-2.2-.3h-.1c0,0-.2,0-.3,0-.3,0-.6,0-1,0s-.8,0-1.2,0h-.4c-.8.1-1.6.2-2.2.4h-.2c-.7.2-1.4.4-2.1.7h-.3c-.5.3-1,.6-1.5.8,1.1-8.9,6.3-28.1,30.1-33ZM70.1,83.3c0,9.5-7.7,17.2-17.2,17.2s-17.2-7.7-17.2-17.2,7.7-17.2,17.2-17.2,17.2,7.7,17.2,17.2ZM71,44.2l-10.9,18.9c-1.7-.6-3.4-1-5.1-1.1v-17.3c4.5-3.8,11.2-4,15.9-.5ZM55.1,6.7c13.9,8,16.3,25.1,16.6,33-5.1-2.8-11.5-2.8-16.6,0V6.7ZM91.2,43.8l-25.6,22.3c-.5-.4-1.1-.8-1.7-1.1l11.3-19.7c4.2-4.1,11-4.7,15.9-1.4ZM90.3,38.6c-.7-.3-1.4-.5-2.2-.7h-.1c-.7-.2-1.4-.3-2.3-.4h-.4c-.8,0-1.5,0-2.2,0h-.4c-.8,0-1.5.2-2.2.3h-.1c-.7.2-1.4.4-2.2.7h-.4c-.7.4-1.4.7-2,1.1-.3-7.3-2.3-23.3-13.8-33.2,23.8,4.9,29,24.1,30.1,33-.5-.3-1-.5-1.5-.7,0,0-.1,0-.2,0h-.1ZM96.2,44.4s0,0,0,0h0s0,0,0,0Z"/>
  <path class="st0" d="M56.8,85.9c-.2.5-.5,1-.8,1.4-.3.4-.7.7-1.1.9-.4.2-.8.3-1.3.3-.7,0-1.3-.2-1.9-.6-.6-.4-1-1-1.3-1.8,0,0,0,0,0-.1h5.3v-2.5h-5.8c0,0,0-.1,0-.2s0-.1,0-.2h5.8v-2.5h-5.3s0,0,0-.1c.3-.8.8-1.4,1.3-1.8.5-.4,1.1-.6,1.8-.6s.9.1,1.3.3c.4.2.8.5,1.1.9.3.4.6.8.8,1.3v.4c.1,0,3.7-1.4,3.7-1.4v-.4c-.5-1-1-1.8-1.7-2.6-.7-.7-1.5-1.3-2.3-1.7-.9-.4-1.9-.6-2.9-.6-1.5,0-2.9.4-4,1.2-1.2.8-2.1,1.9-2.7,3.2-.3.6-.5,1.3-.7,2h-2v2.5h1.8c0,0,0,.1,0,.2s0,.1,0,.2h-1.8v2.5h2c.2.7.4,1.4.7,2,.7,1.4,1.6,2.4,2.8,3.2,1.2.8,2.5,1.2,4,1.2s2-.2,2.9-.6c.9-.4,1.7-1,2.4-1.8.7-.8,1.2-1.6,1.5-2.6v-.4c.1,0-3.5-1.4-3.5-1.4v.4Z"/>
</svg>