<?xml version="1.0" encoding="UTF-8"?>
<svg id="Calque_2" xmlns="http://www.w3.org/2000/svg" version="1.1" viewBox="0 0 105.8 105.8">
  <!-- Generator: Adobe Illustrator 30.2.1, SVG Export Plug-In . SVG Version: 2.1.1 Build 1)  -->
  <defs>
    <style>
      .st0 {
        fill: #ff9e1b;
      }
    </style>
  </defs>
  <path class="st0" d="M95,6.1h-15.8s0,5.5,0,5.5h7.7l-1.3,1.3-12.4,12.4-.5.5-.5-.5c-5.2-4.9-12.1-7.6-19.3-7.6s-14,2.7-19.2,7.6l-.5.5-.5-.5-2-2-.5-.5.5-.5,4.4-4.4-3.9-3.9-4.4,4.3-.5.5-.5-.5-5.5-5.5-1.3-1.3h7.7v-5.5h-15.8c-.7,0-1.2.6-1.2,1.2v15.8h5.5v-7.8l1.3,1.3,5.5,5.5.5.5-.5.5-4.4,4.4,3.9,3.9,4.4-4.4.5-.5.5.5,2.4,2.4.4.4-.3.5c-3,4.6-4.6,10-4.6,15.5,0,14.3,10.7,26.4,24.9,28.1h.7v12.6s0,.8,0,.8h-7v5.5h7v5.7c0,.7.6,1.2,1.2,1.2h3c.7,0,1.2-.6,1.2-1.2v-5.7h7v-5.5h-7v-13.2h.7c14.2-1.8,24.9-13.8,24.9-28.1s-1.6-10.9-4.6-15.5l-.3-.5.4-.4,12.9-12.9,1.3-1.3v7.7h5.5V7.3c0-.7-.6-1.2-1.2-1.2ZM52.9,68.7c-6.5,0-12.7-2.8-17-7.6-4.3-4.8-6.4-11.3-5.7-17.8,1.2-10.4,9.6-18.9,20-20,.9,0,1.7-.1,2.6-.1h0c6.1,0,11.8,2.4,16.1,6.7,4.3,4.3,6.7,10,6.7,16.1,0,12.6-10.2,22.8-22.8,22.8Z"/>
</svg>