<?xml version="1.0" encoding="UTF-8"?><svg xmlns="http://www.w3.org/2000/svg" xmlns:xlink="http://www.w3.org/1999/xlink" id="Layer_4" data-name="Layer 4" viewBox="0 0 300 300"><path fill="white" d="M209.12,10.43v30h21.62l-46.62,46.62c-10.05-5.8-21.71-9.12-34.12-9.12-13.91,0-26.86,4.16-37.67,11.31h0l-9.98-9.98,15.72-15.72-21.21-21.21-15.72,15.72-17.62-17.62h21.62V10.43H12.31v72.83h30v-21.62l17.62,17.62-15.72,15.72,21.21,21.21,15.72-15.72,10.36,10.36s0,0,0,0c-6.36,10.38-10.02,22.58-10.02,35.62,0,32.63,22.93,60.01,53.53,66.86v28.9h-22.23v30h22.23v22.23h30v-22.23h22.23v-30h-22.23v-28.9c30.59-6.85,53.52-34.23,53.52-66.86,0-14.52-4.54-28-12.28-39.09,0,0,0,0,0,0l45.71-45.71v21.62h30V10.43h-72.83ZM150,184.97c-21.24,0-38.53-17.28-38.53-38.52s17.29-38.52,38.53-38.52,38.52,17.28,38.52,38.52-17.28,38.52-38.52,38.52Z"/></svg>