<?xml version="1.0" encoding="UTF-8"?><svg xmlns="http://www.w3.org/2000/svg" xmlns:xlink="http://www.w3.org/1999/xlink" id="Layer_4" data-name="Layer 4" viewBox="0 0 300 300"><defs><style> .cls-1 { fill: url(#New_Gradient_Swatch_2); } </style><linearGradient id="New_Gradient_Swatch_2" data-name="New Gradient Swatch 2" x1="69.78" y1="327.25" x2="250.43" y2="156.41" gradientUnits="userSpaceOnUse"><stop offset="0" stop-color="#089fd7"/><stop offset="1" stop-color="#84cc62"/></linearGradient></defs><path class="cls-1" d="M192.52,223.81c0,17.73-6.47,34.65-17.71,47.79l-19.3-24.17c4.5-6.94,7.01-15.12,7.01-23.62,0-12.34-5.3-24.02-14.25-32.18-8.95,8.16-14.25,19.84-14.25,32.18,0,8.5,2.51,16.68,7.01,23.62l-19.3,24.17c-11.24-13.14-17.71-30.06-17.71-47.79,0-26.16,14.08-50.55,36.74-63.65l7.51-4.33,7.51,4.33c22.66,13.1,36.74,37.49,36.74,63.65ZM58.78,215.43l-7.51-4.34-7.51,4.34c-22.66,13.1-36.74,37.49-36.74,63.64v15h30v-15c0-12.34,5.3-24.02,14.25-32.18,8.95,8.16,14.25,19.84,14.25,32.18v15s30,0,30,0v-15c0-26.15-14.08-50.54-36.74-63.64ZM251.19,71.03l-7.5-4.34-7.51,4.34c-22.67,13.1-36.74,37.49-36.74,63.64,0,16.48,5.58,32.26,15.39,44.95l19.67-24.64c-3.27-6.17-5.06-13.13-5.06-20.31,0-12.34,5.3-24.02,14.25-32.17,8.95,8.15,14.25,19.83,14.25,32.17,0,7.18-1.79,14.14-5.06,20.31l19.66,24.64c9.81-12.69,15.4-28.47,15.4-44.95,0-26.15-14.08-50.54-36.75-63.64ZM133.27,279v15.08h30v-15.08l-15-20-15,20ZM228.69,191.53v96.21h30v-96.21l-15-20-15,20Z"/></svg>