<?xml version="1.0" encoding="UTF-8"?>
<svg id="Calque_2" xmlns="http://www.w3.org/2000/svg" version="1.1" viewBox="0 0 105.8 105.8">
  <!-- Generator: Adobe Illustrator 30.2.1, SVG Export Plug-In . SVG Version: 2.1.1 Build 1)  -->
  <defs>
    <style>
      .st0 {
        fill: #19199e;
      }
    </style>
  </defs>
  <path class="st0" d="M47,14.9c.5-3.7,2.3-6.3,5.9-7.8,2.6-1.1-.8-3.3,2.7-4.6,3-.3,2.4,2.3,2.7,4.3,4.1.9,6.3,4.1,7,8.1h13.9c1.6,0,7.3-.4,8.4.3,1.7,1,1.2,3.5-1.3,3.9,2.4,4.8,5.5,9.7,8.1,14.4.7,1.3,1.7,2.6,2.2,4.1,3,0,2.8,1.3,2.6,4-1,12.7-16.5,19.2-26,10.4-3.4-3.1-4.8-7.3-5-11.8,0-1.6.6-2.6,2.3-2.6,3.6-6,6.9-12.4,10.5-18.5h-11.2c-1.8,0-3.7,0-5.5,0v.2c-1.5,2.7-3.2,4-6.1,4.9v43h5c8.3,0,10,2.6,10,10.6,1.4-.5,2.8-1.1,4.1-1.7l8.2-3.5c1.5-.6,3.1-1.4,4.6-1.7,4-.7,8.1,2.2,9.8,5.6,2,3.8.4,4.1-2.4,5.8l-25.6,15.6c-7.7,4.6-14.5,7.3-23.7,4.2-2.7-.9-5.1-2.3-7.6-3.6-5-2.6-10.6-5.7-15.8-7.9,0,2.3-.1,3.5-2.7,3.6-3,.1-6.1,0-9.2,0h-3.7c-2.9,0-4.4.2-4.4-3.2v-25.7c0-1.7-.6-4.7,1.7-5,1.5-.2,3.5,0,5.1,0h9.9c2.3,0,3.4.2,3.3,2.7h7.4c5.9,0,9.5.2,14.9,2.9,3.5,1.8,2.3,1.3,6.7,1.3V24.2c-2.7-.6-5.1-2.6-6.2-5h-16.2c.9,1.8,1.9,3.6,2.9,5.3l4.7,8.4c.9,1.6,1.8,3.1,2.6,4.7,1.4,0,2.6.3,2.7,2,.9,13.4-15.6,21.5-26,12.4-3.1-2.7-4.9-6.8-5.2-11-.1-2,.3-3.4,2.6-3.5.8-1.9,2-3.8,3-5.6l4.9-8.7c.8-1.4,1.7-2.7,2.3-4.2-1.9-.3-3-2.2-1.7-3.6.9-1,2.7-.7,3.9-.7h18.7ZM55.6,10.7c-6.2,1-5.3,9.9,1.4,9.4,6.1-1.2,4.6-10.1-1.4-9.4h0ZM28.7,23.1c-.8,1.3-1.5,2.6-2.2,3.9l-3.4,6.1c-.8,1.4-1.8,2.9-2.3,4.5h16.2c-1-1.8-7.6-14.1-8.3-14.5h0ZM83.7,23.1c-2.9,4.1-5.7,10-8.3,14.5h13.8c.9,0,1.8,0,2.7,0-2.6-4.6-5.4-10.1-8.2-14.5ZM17.5,41.8c1,3.6,2,6.4,5.5,8.3,5.4,3,9.5,1.4,14-1.7,1.7-2.4,2.8-3.5,3.1-6.6h-20.5c-.7,0-1.4-.1-2.1,0h0ZM72.6,41.8c1.1,6.5,6.5,10.9,13.1,9.7,2.8-.5,4-1.5,6.2-3.1,1.5-1.9,3-4.1,3.2-6.6h-22.5ZM9.2,64.5v25.5h11.6c.2-8.3.1-17.2,0-25.5h-11.6ZM25.5,67.2c-1,0-.5,3.1-.5,4v14.6l17.4,8.8c13.3,6.9,16.8,6,30-1.9l20.8-12.7c1-.6,2.1-1.2,3-1.8-1.8-3.3-4.4-3.9-7.7-2.4-3.4,1.6-6.9,2.9-10.4,4.4l-3.5,1.6c-2.7,1.2-3,1.2-6,1.2h-24.4v-4.3h24.8c0-8.3-.6-7.5-7.9-7.5h-10.8c-2.8,0-2.1,0-4.6-1.4-4.7-2.6-8.2-2.7-13.5-2.7h-6.8Z"/>
</svg>