<?xml version="1.0" encoding="UTF-8"?>
<svg id="Calque_3" xmlns="http://www.w3.org/2000/svg" version="1.1" viewBox="0 0 196.1 133.3">
  <!-- Generator: Adobe Illustrator 30.2.1, SVG Export Plug-In . SVG Version: 2.1.1 Build 1)  -->
  <defs>
    <style>
      .st0 {
        fill: #fff;
      }
    </style>
  </defs>
  <g>
    <path class="st0" d="M119.8,99h-2.8v1.9h3.6v.9c0,.8-.6,1.3-1.2,1.3h-2.4v3.9h-1.4c-.9,0-1.5-.5-1.5-1.4v-7.1c0-1.3.7-1.9,2.1-1.9h5v1c0,.6-.5,1.3-1.5,1.3Z"/>
    <path class="st0" d="M129.6,107.1c-1,0-1.6-.4-1.9-1.1l-.8-1.7c-.4-.9-.7-1.1-1.4-1.1h-.4s0,3.8,0,3.8h-1.1c-1.1,0-1.8-.7-1.8-1.6v-8.4c.7-.3,2.3-.4,3.1-.4h1.2c2.2,0,3.8,1.2,3.8,3.1s-.9,2.5-1.9,2.8c.5.2.8.6,1.1,1.4l.8,1.7c.3.6.6,1.1.7,1.3h0c-.3.3-.9.3-1.5.3ZM125.7,98.8c-.1,0-.4,0-.6,0v2.3c.3,0,.7,0,1.1,0,.8,0,1.2-.6,1.2-1.2s-.4-1.2-1.2-1.2h-.6Z"/>
    <path class="st0" d="M140.1,107c-1,0-1.6-.3-1.8-1.2,0-.4-.2-.8-.3-1.2h-3.6c-.2.8-.4,1.8-.5,2.4h-1.2c-.9,0-1.3-.5-1.3-1.3,0-1.5,2-7.2,3.8-9.1h1.1c1,0,1.7.5,2,1.1,1,1.6,2.5,5.7,3,9.3h-1.3ZM136.3,99.3c-.5.9-.9,2.1-1.2,3.1h2.4c-.3-1-.8-2.3-1.2-3.1Z"/>
    <path class="st0" d="M150.5,107c-1.2,0-2.1-.5-3.1-2.2l-1.8-3.2c-.3-.4-.5-.8-.5-.9v6.2h-1.2c-.8,0-1.6-.5-1.6-1.6v-8.8h1.4c1.5,0,2.5.7,3.2,2.1l1.9,3.8v-5.9h1.3c.7,0,1.4.5,1.4,1.3v9h-1.1Z"/>
    <path class="st0" d="M161.7,100c-.5-.7-1.8-1.1-3-1.1-1.7,0-2.9,1.1-2.9,2.8s1.3,3.1,3,3.1,2.3-.4,2.8-1h0v1.1c0,1.3-1.3,2.4-3.4,2.4s-5.4-2-5.4-5.3,2.1-5.5,5.6-5.5,3.2,1,3.2,2.5v1.1h0Z"/>
    <path class="st0" d="M168.3,107.2h-1.2c-2.7,0-4.2-1.4-4.2-4.2v-1.7c0-.9,0-2,.2-2.8.2-1.3,1-1.7,2-1.7h5.6v.7c0,1-.5,1.7-1.7,1.7h-3.1c0,.5-.1,1.3-.1,1.8h4v1c0,.8-.6,1.2-1.6,1.2h-2.4v.4c0,1.1.4,1.5,1.8,1.5h.8c.9,0,1.6,0,2.4-.3v1.1c0,.9-.6,1.5-2.4,1.5Z"/>
    <path class="st0" d="M120.2,124h-5c-.7,0-1.4-.5-1.4-1.2s.7-1.8,1.8-2.7l2.4-1.9c.5-.4.7-.8.7-1.3,0-.8-.5-1.2-1.5-1.2-1.4,0-2.4.3-3.1,1.2h0v-.9c0-1.4,1-2.7,3.8-2.7s3.8,1.6,3.8,3.3-.5,2.1-2.3,3.4l-1.6,1.1c-.2.2-.5.4-.6.6h4.8v1c0,.8-.5,1.3-1.6,1.3Z"/>
    <path class="st0" d="M127.1,124.3c-2.1,0-4.1-1.7-4.1-5.2s1.6-5.6,4.3-5.6,4.1,1.4,4.1,5.2-1.1,5.6-4.3,5.6ZM127.2,121.9c.9,0,1.3-.6,1.3-3.1s-.5-3-1.3-3-1.4.5-1.4,3,.6,3.1,1.4,3.1Z"/>
    <path class="st0" d="M138.7,124h-5c-.7,0-1.4-.5-1.4-1.2s.7-1.8,1.8-2.7l2.4-1.9c.5-.4.7-.8.7-1.3,0-.8-.5-1.2-1.5-1.2-1.4,0-2.4.3-3.1,1.2h0v-.9c0-1.4,1-2.7,3.8-2.7s3.8,1.6,3.8,3.3-.5,2.1-2.3,3.4l-1.6,1.1c-.2.2-.5.4-.6.6h4.8v1c0,.8-.5,1.3-1.6,1.3Z"/>
    <path class="st0" d="M145.6,124.3c-2.4,0-4-1.7-4-5.1s1.8-5.7,4.9-5.7,2.8.8,2.8,2v.9h0c-.6-.5-1.2-.7-2.5-.7s-2.2.8-2.2,2.3c.3-.5,1.3-.8,1.8-.8,2.2,0,3.5,1.2,3.5,3.4s-1.1,3.7-4.2,3.7ZM145.8,122c.7,0,1.2-.5,1.2-1.3s-.5-1.3-1.3-1.3-1.3.7-1.3.9c0,1.2.5,1.7,1.4,1.7Z"/>
  </g>
  <g>
    <path class="st0" d="M22.9,114.4c-.7-.9-2.5-1.5-4.1-1.5-2.4,0-4.1,1.6-4.1,3.9s1.8,4.4,4.2,4.4,3.3-.6,4-1.3h.1v1.5c0,1.9-1.9,3.3-4.7,3.3s-7.5-2.9-7.5-7.4,3-7.7,7.8-7.7,4.5,1.4,4.5,3.4v1.5h-.1Z"/>
    <path class="st0" d="M26.2,124.3c-.9,0-1.8-.8-1.8-2.2v-12.2h2.2c.8,0,1.8.7,1.8,1.9v12.6h-2.1Z"/>
    <path class="st0" d="M37.4,124.5h-.9c-1,0-1.5-.4-2.1-1.3-2.3-3.5-4.2-8.5-5-13.4h2.2c1.4,0,2.2,1,2.3,1.8.4,1.9,1.3,5,2.4,7.4,1.2-2.4,2.4-6.3,2.8-9.2h2c1,0,1.8.6,1.8,1.7s-.4,1.6-.9,3.2c-.9,2.9-3.3,7.9-4.7,9.8Z"/>
    <path class="st0" d="M46,124.3c-.9,0-1.8-.8-1.8-2.2v-12.2h2.2c.8,0,1.8.7,1.8,1.9v12.6h-2.1Z"/>
    <path class="st0" d="M57.4,124.5h-1.7c-3.7,0-5.2-1.8-5.2-5.5v-9.2h1.7c1.6,0,2.3.8,2.3,2.5v6.4c0,1.9.5,2.5,2.3,2.5h.6c1.2,0,2.5-.2,3.1-.4h.1v1.4c0,1.5-.9,2.4-3.2,2.4Z"/>
    <path class="st0" d="M73.2,115l-2.6,4.3c-.6,1-1,2.4-1,3.3v1.7h-1.9c-1.1,0-2.2-.4-2.2-2s.4-2.6,1.3-3.9l2.1-3.4c.5-.8.7-1.3.9-1.8h-6.7v-1.2c0-1.3.7-2.1,2.2-2.1h7c1.4,0,2.2.7,2.2,1.9s-.6,2-1.3,3.3Z"/>
  </g>
  <g>
    <path class="st0" d="M187.1,41.8c-1.5-1.7-2.8-3-4.1-3.1-5-.6-9,6.1-9.9,6.9-.7.5-1.6.4-2.3-.1,0,0,0,0,0,0-3.1-2.5-6.6-4.3-10.4-5.5-1.9-.6-3.9-1.2-5.4-1.3-4.6-.5-6.2-.3-10.6,1.2-.2,0-.4.2-.4.3,1.3.7,2.9,1.5,3.8,2.6.2.2-.3.5-.3,1.8,0,2.6,2.7,3.1,3.1,3.5.3.3-1.2,1.7-.4,3.9.8,2.2,3.6,4.3,5.8,5.5,4.3,2.4,12.5,1.3,13.7.9,1.5-.6-2,1-5.9,1.6-.6,3.9-4.5,8.6-1.5,8.2,13.5-1.9,16.7-8.2,16.7-8.2,2-3.6,2-8.7,3.2-11.7,1.4-3.8,3.5-5,4.7-5.4.4-.1.6-.6.3-1Z"/>
    <path class="st0" d="M77,33.8c-5.6-7.3-16.8-9.6-24.4-9.6-15.9,0-27.7,11.4-27.7,28.7s11.6,31.5,28.3,31.5,18.7-3.5,23.5-8.6h.7v6.6c0,12.2-14.2,17.4-26.5,17.4-23.7,0-43.9-17.7-43.9-44.3S25.2,8.7,52.4,8.7s25.2,6,25.2,18.2v6.9h-.6Z"/>
    <g>
      <path class="st0" d="M83.9,112.7c0,8.7,4.9,12,9.8,12h8.3v-7.2c0-6.9,2.2-14.8,7-23.5l3.3-6c-9.5.3-17.3,2.9-22.7,5.2-3.8,7.5-5.7,14-5.7,19.5Z"/>
      <path class="st0" d="M177.6,68.9c-6.7,7.9-24.3,4.6-39.9,1.6-5.1-1-10-1.9-14.5-2.4l1.8-3.4c4.5-8.3,7.7-14.8,7.7-19s-4.2-10.1-12.9-10.1h-39.4c-7.3,0-11.7,4.3-11.7,11.2v4.4h43.9c-.4,1.8-2.1,6.2-3.6,8.8l-4.7,7.8c-6.6.7-11.1,2.2-14.4,3.6-.5.2-1.1.5-1.6.7-3.8,1.7-6.2,5.5-6.2,9.6v8s.3,1.5,1.4.9c4.4-2.5,17.6-9.1,34.7-7.9,4.6.3,10.3,1.4,16.4,2.6,8.8,1.7,15.6,3.5,24.9,3.5,17.3.9,19.3-20,19.3-20-.4-.3-1-.2-1.3.2Z"/>
    </g>
  </g>
</svg>