<?xml version="1.0" encoding="UTF-8"?>
<svg id="Calque_2" xmlns="http://www.w3.org/2000/svg" version="1.1" viewBox="0 0 105.8 105.8">
  <!-- Generator: Adobe Illustrator 30.2.1, SVG Export Plug-In . SVG Version: 2.1.1 Build 1)  -->
  <defs>
    <style>
      .st0 {
        fill: #19199e;
      }
    </style>
  </defs>
  <path class="st0" d="M96,56.3c-1.4-1.4-3.1-2.6-5-3.4,0-1.2.2-2.4.2-3.7,0-4.7-.8-9.3-2.3-13.7h0c-2.9-8.4-8.2-15.5-15.4-20.6-7.1-5.1-15.7-7.8-24.4-7.7h-2c-8.3.4-16.4,3.3-23.1,8.4-6.7,5-11.7,11.9-14.5,19.8h0c-3.1,9-3.1,18.6,0,27.5h0c2.8,8,7.8,15,14.5,20,6.7,5,14.7,7.9,23.1,8.4h2c4.1,0,8.3-.6,12.2-1.9l10.8,10.8c.5.5,1.1.7,1.7.7.6,0,1.3-.3,1.7-.7l20.3-20.3c2.1-2.1,3.6-4.7,4.3-7.5.8-2.8.8-5.8,0-8.7-.8-2.8-2.3-5.4-4.3-7.5h0ZM86.3,49.3v2.3c-4.4-.6-8.8.6-12.3,3.2-1.6-1.2-3.3-2.1-5.2-2.7v-2.9c0-3.5-.2-7-.6-10.5h16.6c1,3.4,1.5,6.9,1.5,10.5h0ZM83,34h-15.5c-1.6-8.7-4.5-15.7-8.1-20.4,5.2,1.5,10,4.1,14.1,7.6,4.1,3.5,7.3,7.9,9.6,12.8h0ZM64,49.3v2.2c-2.2,0-4.4.4-6.5,1.2-2,.8-3.9,2.1-5.5,3.6-1,1-1.9,2.2-2.6,3.4h-15.9c-.9-7-.9-14,0-21h29.8c.5,3.5.7,7,.7,10.6h0ZM47.7,12.1h.9c5.8.2,11.4,9,13.9,21.8h-28.3c2.4-12.3,7.8-21.1,13.4-21.8h0ZM37,14.2c-4,5.9-6.6,12.7-7.7,19.7h-14c2.1-4.6,5.1-8.7,8.8-12.1,3.7-3.4,8.1-6,12.8-7.7h0ZM12.1,49.3c0-3.5.6-7.1,1.6-10.5h15c-.8,7-.8,14,0,21h-15c-1-3.4-1.6-7-1.6-10.5ZM15.4,64.6h14c1.1,7.1,3.7,13.8,7.7,19.7-4.7-1.7-9.1-4.3-12.8-7.7-3.7-3.4-6.7-7.5-8.8-12.1h0ZM48.6,86.4h-.9c-5.6-.7-11-9.5-13.4-21.8h13.2c-.6,2.7-.5,5.6.3,8.2.8,2.7,2.2,5.1,4.2,7.1l2.8,2.8c-1.5,2-3.7,3.3-6.2,3.6h0ZM92.5,76.6l-18.6,18.5-14.1-14.1h-.1c0,0-4.4-4.5-4.4-4.5-2.2-2.2-3.5-5.3-3.5-8.4s1.3-6.2,3.5-8.4c2.2-2.2,5.3-3.5,8.4-3.5s6.2,1.2,8.4,3.5c.5.5,1.1.7,1.7.7s1.3-.3,1.7-.7c2.2-2.2,5.3-3.5,8.4-3.5s6.2,1.2,8.4,3.5c2.2,2.2,3.5,5.3,3.5,8.4s-1.3,6.2-3.5,8.4h0Z"/>
</svg>