<?xml version="1.0" encoding="UTF-8"?>
<svg id="Calque_1" xmlns="http://www.w3.org/2000/svg" version="1.1" xmlns:xlink="http://www.w3.org/1999/xlink" viewBox="0 0 481.9 251.3">
  <!-- Generator: Adobe Illustrator 30.2.1, SVG Export Plug-In . SVG Version: 2.1.1 Build 1)  -->
  <defs>
    <style>
      .st0 {
        fill: #283387;
      }

      .st1 {
        fill: none;
      }

      .st2 {
        opacity: .3;
      }

      .st3 {
        clip-path: url(#clippath);
      }
    </style>
    <clipPath id="clippath">
      <rect class="st1" x="5.1" y="7.7" width="471.7" height="235.9"/>
    </clipPath>
  </defs>
  <g id="Groupe_9" class="st2">
    <g class="st3">
      <g id="Groupe_8">
        <path id="Tracé_4" class="st0" d="M476.1,23.4c-6.5-7.5-12.7-13.3-18.2-14-22.5-2.8-40.6,27.6-44.5,30.9-2.9,2.5-7.2,1.9-10.2-.6,0,0-.1-.1-.2-.2-13.9-11-29.7-19.4-46.5-24.8-8.4-2.8-17.4-5.3-24.1-6-20.7-2.1-27.8-1.3-47.8,5.3-.8.2-1.5.7-1.9,1.5,5.7,2.9,12.9,6.7,17.1,11.8.8,1-1.4,2.1-1.4,8-.2,11.7,12.3,13.9,13.9,15.6,1.1,1.2-5.5,7.4-1.6,17.6,3.8,10.1,16.2,19.5,26.1,24.9,19.2,10.6,56.1,6,61.6,4,6.9-2.5-8.9,4.4-26.7,7.1-2.9,17.5-20,38.7-6.9,36.9,60.8-8.6,74.9-36.7,74.9-36.7,8.8-16,9.1-38.9,14.3-52.7,6.4-17.3,15.8-22.3,21.1-24.1,1.4-.5,2.2-2,1.8-3.4-.1-.4-.3-.7-.6-1"/>
        <path id="Tracé_5" class="st0" d="M352.5,234.2c-41.5,0-72-8-111.6-15.5-27.3-5.2-53-10.1-73.5-11.5-76.7-5.2-136,24.3-155.7,35.7-5.2,3-6.5-3.9-6.5-3.9v-35.8c.1-18.6,11-35.4,27.8-43.2,2.3-1.1,4.7-2.1,7.1-3.2,23.7-10.2,62.1-21.5,132.2-16.7,24.8,1.7,52.6,7,82,12.6,70,13.3,149,28.4,179.2-7.3,1.4-1.7,3.9-2.1,5.8-.9,0,0-8.9,93.8-86.8,89.8"/>
      </g>
    </g>
  </g>
</svg>