<?xml version="1.0" encoding="UTF-8"?><svg xmlns="http://www.w3.org/2000/svg" xmlns:xlink="http://www.w3.org/1999/xlink" id="Layer_4" data-name="Layer 4" viewBox="0 0 300 300"><defs><style> .cls-1 { fill: url(#New_Gradient_Swatch_2); } </style><linearGradient id="New_Gradient_Swatch_2" data-name="New Gradient Swatch 2" x1="61.67" y1="276.2" x2="200.43" y2="79.84" gradientUnits="userSpaceOnUse"><stop offset="0" stop-color="#089fd7"/><stop offset="1" stop-color="#84cc62"/></linearGradient></defs><path class="cls-1" d="M96.22,248.56l-21.87,21.87c13.77,8.79,29.15,15.29,45.59,18.94v-30.95c-8.34-2.38-16.29-5.71-23.72-9.86ZM205.67,248.56c-7.44,4.15-15.39,7.48-23.73,9.86v30.95c16.44-3.65,31.82-10.15,45.6-18.94l-21.87-21.87ZM8.18,150c0,28.16,8.2,54.45,22.33,76.59l21.87-21.87c-9.05-16.21-14.2-34.88-14.2-54.72,0-51.43,34.61-94.93,81.76-108.42V10.63C56.07,24.83,8.18,81.92,8.18,150ZM181.94,10.63v30.95c47.15,13.49,81.77,56.99,81.77,108.42,0,19.84-5.15,38.51-14.2,54.72l21.87,21.87c14.13-22.14,22.33-48.43,22.33-76.59,0-68.08-47.89-125.17-111.77-139.37ZM261.89,239.74c-6.3,7.79-13.42,14.91-21.21,21.21l-21.35-21.35-37.39-37.39-16-16v105.77c-4.93.51-9.94.78-15,.78s-10.07-.27-15-.78v-105.77l-16,16-37.38,37.38-21.35,21.36c-7.79-6.3-14.91-13.42-21.22-21.21l95.95-95.95V8.02c4.93-.51,9.94-.78,15-.78s10.07.27,15,.78v135.77l16,16,58.6,58.6,21.35,21.35Z"/></svg>