<?xml version="1.0" encoding="UTF-8"?>
<svg id="Calque_2" xmlns="http://www.w3.org/2000/svg" version="1.1" viewBox="0 0 105.8 105.8">
  <!-- Generator: Adobe Illustrator 30.2.1, SVG Export Plug-In . SVG Version: 2.1.1 Build 1)  -->
  <defs>
    <style>
      .st0 {
        fill: #19199e;
      }
    </style>
  </defs>
  <path class="st0" d="M94.6,15.3c-5.8-5.8-13.5-9-21.7-9s-14.4,2.6-20,7.4c-5.6-4.8-12.6-7.4-20-7.4s-15.9,3.2-21.7,9c-5.8,5.8-9,13.5-9,21.7s3.2,15.9,9,21.7l38.8,38.8h0s1.1,1.1,1.1,1.1c.5.5,1.1.7,1.8.7s1.3-.3,1.8-.7l39.9-39.9c5.8-5.8,9-13.5,9-21.7s-3.2-15.9-9-21.7ZM98.6,37.1c0,6.9-2.7,13.3-7.5,18.2l-38.2,38.2L14.7,55.3c-10-10-10-26.4,0-36.4l.3-.3c4.8-4.7,11.2-7.3,17.9-7.3s13.3,2.7,18.2,7.5c.9.9,2.6.9,3.6,0,10-10,26.4-10,36.4,0,4.9,4.9,7.5,11.3,7.5,18.2Z"/>
  <path class="st0" d="M60,41.4v-6.4c0-1.4-1.1-2.5-2.5-2.5h-9.2c-1.4,0-2.5,1.1-2.5,2.5v6.4h-6.4c-1.4,0-2.5,1.1-2.5,2.5v9.2c0,1.4,1.1,2.5,2.5,2.5h6.4v6.4c0,1.4,1.1,2.5,2.5,2.5h9.2c1.4,0,2.5-1.1,2.5-2.5v-6.4h6.4c1.4,0,2.5-1.1,2.5-2.5v-9.2c0-1.4-1.1-2.5-2.5-2.5h-6.4ZM48.3,50.6h-6.4v-4.2h6.4c1.4,0,2.5-1.1,2.5-2.5v-6.4h4.2v6.4c0,1.4,1.1,2.5,2.5,2.5h6.4v4.2h-6.4c-1.4,0-2.5,1.1-2.5,2.5v6.4h-4.2v-6.4c0-1.4-1.1-2.5-2.5-2.5Z"/>
  <path class="st0" d="M52.9,24c-13.5,0-24.5,11-24.5,24.5s11,24.5,24.5,24.5,24.5-11,24.5-24.5-11-24.5-24.5-24.5ZM72.4,48.5c0,10.7-8.7,19.5-19.5,19.5s-19.5-8.7-19.5-19.5,8.7-19.5,19.5-19.5,19.5,8.7,19.5,19.5Z"/>
</svg>