<?xml version="1.0" encoding="UTF-8"?><svg xmlns="http://www.w3.org/2000/svg" xmlns:xlink="http://www.w3.org/1999/xlink" id="Layer_4" data-name="Layer 4" viewBox="0 0 300 300"><path fill="white" d="M165,264.84v16.37h-30v-16.37c4.94.64,9.94.96,15,.96s10.06-.32,15-.96ZM135,18.79v16.37c4.94-.64,9.94-.96,15-.96s10.06.32,15,.96v-16.37h-30ZM241.81,220.59c-3.04,3.96-6.35,7.72-9.92,11.29-3.57,3.57-7.33,6.89-11.29,9.94l11.57,11.57,21.22-21.22-11.58-11.58ZM67.83,46.61l-21.22,21.22,11.58,11.58c3.04-3.96,6.35-7.72,9.92-11.29,3.57-3.57,7.33-6.89,11.29-9.94l-11.57-11.57ZM264.84,135c.64,4.94.96,9.95.96,15s-.32,10.06-.96,15h16.37v-30h-16.37ZM265.8,150c0,5.05-.32,10.06-.96,15-.66,5.1-1.66,10.14-2.99,15.09-1.3,4.83-2.92,9.58-4.85,14.24-1.93,4.65-4.14,9.15-6.64,13.47-2.56,4.45-5.41,8.72-8.55,12.79-3.04,3.96-6.35,7.72-9.92,11.29-3.57,3.57-7.33,6.89-11.29,9.94-4.07,3.14-8.34,5.99-12.79,8.54-4.33,2.5-8.84,4.72-13.5,6.65-4.65,1.93-9.39,3.54-14.22,4.83-4.95,1.34-9.98,2.34-15.09,3-4.94.64-9.94.96-15,.96s-10.06-.32-15-.96c-5.1-.66-10.14-1.66-15.09-2.99-4.83-1.3-9.58-2.92-14.24-4.85-4.66-1.92-9.16-4.13-13.48-6.63-4.45-2.56-8.72-5.41-12.79-8.55-3.96-3.05-7.72-6.37-11.29-9.94-3.57-3.57-6.88-7.33-9.92-11.29-3.14-4.07-5.99-8.34-8.55-12.79-2.5-4.32-4.71-8.82-6.65-13.47-1.93-4.66-3.54-9.41-4.84-14.24-1.34-4.95-2.33-9.99-2.99-15.09-.64-4.94-.96-9.95-.96-15s.32-10.06.96-15c.66-5.1,1.66-10.14,2.99-15.09,1.3-4.83,2.92-9.58,4.85-14.24,1.93-4.65,4.14-9.15,6.64-13.47,2.56-4.45,5.41-8.72,8.55-12.79,3.04-3.96,6.35-7.72,9.92-11.29,3.57-3.57,7.33-6.89,11.29-9.94,4.07-3.14,8.34-5.99,12.79-8.54,4.33-2.5,8.84-4.72,13.5-6.65,4.65-1.93,9.39-3.54,14.22-4.83,4.95-1.34,9.98-2.34,15.09-3,4.94-.64,9.94-.96,15-.96s10.06.32,15,.96c5.1.66,10.14,1.66,15.09,2.99,4.83,1.3,9.58,2.92,14.24,4.85,4.66,1.92,9.16,4.13,13.48,6.63,4.45,2.56,8.72,5.41,12.79,8.55,3.96,3.05,7.72,6.37,11.29,9.94,3.57,3.57,6.88,7.33,9.92,11.29,3.14,4.07,5.99,8.34,8.55,12.79,2.5,4.32,4.71,8.82,6.65,13.47,1.93,4.66,3.54,9.41,4.84,14.24,1.34,4.95,2.33,9.99,2.99,15.09.64,4.94.96,9.95.96,15ZM235.8,150c0-11.38-2.19-22.43-6.5-32.83-4.34-10.44-10.6-19.81-18.63-27.85-8.03-8.03-17.39-14.29-27.82-18.61-10.42-4.32-21.47-6.51-32.85-6.51s-22.43,2.19-32.83,6.5c-10.45,4.33-19.81,10.59-27.84,18.62-8.03,8.04-14.29,17.41-18.62,27.85-4.32,10.4-6.51,21.45-6.51,32.83s2.19,22.43,6.5,32.83c4.34,10.44,10.6,19.81,18.63,27.85,8.03,8.03,17.39,14.29,27.82,18.61,10.42,4.32,21.47,6.51,32.85,6.51s22.43-2.19,32.83-6.5c10.45-4.33,19.81-10.59,27.84-18.62,8.03-8.04,14.29-17.41,18.62-27.85,4.32-10.4,6.51-21.45,6.51-32.83ZM35.16,135h-16.37v30h16.37c-.64-4.94-.96-9.95-.96-15s.32-10.06.96-15ZM232.17,46.61l-11.57,11.57c3.96,3.05,7.72,6.37,11.29,9.94,3.57,3.57,6.88,7.33,9.92,11.29l11.58-11.58-21.22-21.22ZM68.11,231.88c-3.57-3.57-6.88-7.33-9.92-11.29l-11.58,11.58,21.22,21.22,11.57-11.57c-3.96-3.05-7.72-6.37-11.29-9.94ZM207.81,250.68c-4.33,2.5-8.84,4.72-13.5,6.65-4.65,1.93-9.39,3.54-14.22,4.83l6.26,15.12,27.72-11.48-6.26-15.12ZM113.65,23.36l-27.72,11.48,6.26,15.12c4.33-2.5,8.84-4.72,13.5-6.65,4.65-1.93,9.39-3.54,14.22-4.83l-6.26-15.12ZM261.85,180.41c-1.3,4.83-2.92,9.58-4.85,14.24-1.93,4.65-4.14,9.15-6.64,13.47l15.12,6.27,11.48-27.72-15.11-6.26ZM34.52,86.25l-11.48,27.72,15.11,6.26c1.3-4.83,2.92-9.58,4.85-14.24,1.93-4.65,4.14-9.15,6.64-13.47l-15.12-6.27ZM265.48,86.25l-15.12,6.27c2.5,4.32,4.71,8.82,6.65,13.47,1.93,4.66,3.54,9.41,4.84,14.24l15.11-6.26-11.48-27.72ZM42.99,194.65c-1.93-4.66-3.54-9.41-4.84-14.24l-15.11,6.26,11.48,27.72,15.12-6.27c-2.5-4.32-4.71-8.82-6.65-13.47ZM186.35,23.36l-6.26,15.11c4.83,1.3,9.58,2.92,14.24,4.85,4.66,1.92,9.16,4.13,13.48,6.63l6.26-15.11-27.72-11.48ZM105.67,257.32c-4.66-1.92-9.16-4.13-13.48-6.63l-6.26,15.11,27.72,11.48,6.26-15.11c-4.83-1.3-9.58-2.92-14.24-4.85ZM150,115.19c-20.58,0-37.26,16.68-37.26,37.26s16.68,37.26,37.26,37.26,37.26-16.68,37.26-37.26-16.68-37.26-37.26-37.26Z"/></svg>