<?xml version="1.0" encoding="UTF-8"?><svg xmlns="http://www.w3.org/2000/svg" xmlns:xlink="http://www.w3.org/1999/xlink" id="Layer_4" data-name="Layer 4" viewBox="0 0 300 300"><defs><style> .cls-1 { fill: url(#New_Gradient_Swatch_2); } </style><linearGradient id="New_Gradient_Swatch_2" data-name="New Gradient Swatch 2" x1="49.83" y1="292.27" x2="238.87" y2="46.96" gradientUnits="userSpaceOnUse"><stop offset="0" stop-color="#089fd7"/><stop offset="1" stop-color="#84cc62"/></linearGradient></defs><path class="cls-1" d="M98.2,222.58c-.14-.67-.29-1.34-.47-2.01-1.81-7.11-5.22-13.75-9.98-19.39v-69.16c0-8.16-2.61-15.93-7.42-22.34-.64-.85-1.32-1.68-2.03-2.49-.48-.53-.98-1.06-1.49-1.57-.77-.77-1.56-1.49-2.38-2.18-1.21-1.03-2.48-1.96-3.79-2.81-2.87-1.86-5.97-3.3-9.22-4.3-3.52-1.09-7.22-1.65-11.01-1.65s-7.41.56-10.85,1.61c-15.32,4.66-26.49,18.91-26.49,35.73v69.16c-7.38,8.75-11.51,19.9-11.51,31.5,0,26.93,21.91,48.85,48.85,48.85,22.35,0,41.24-15.09,47.02-35.61,1.19-4.21,1.83-8.65,1.83-13.24,0-3.42-.36-6.8-1.06-10.1ZM50.41,251.53c-10.39,0-18.85-8.46-18.85-18.85,0-5.42,2.34-10.58,6.41-14.16l5.1-4.48v-82.02c0-4.04,3.29-7.34,7.34-7.34.06,0,.12,0,.17.01,2.55.05,4.24,1.36,5.02,2.14.8.8,2.15,2.55,2.15,5.19v82.02l5.1,4.48c4.07,3.58,6.41,8.74,6.41,14.16,0,10.39-8.46,18.85-18.85,18.85ZM296.04,148.06c0,22.46-5.58,43.65-15.43,62.25-2.24,4.23-4.7,8.32-7.37,12.27-24,35.54-64.65,58.95-110.67,58.95-20.54,0-40.66-4.7-58.9-13.68,2.89-4.34,5.25-9.05,7-14.05,1.61-4.58,2.71-9.41,3.24-14.4,14.92,7.95,31.59,12.13,48.66,12.13,27.82,0,53.1-11.03,71.71-28.95,8.91-8.57,16.29-18.73,21.68-30,3.96-8.27,6.86-17.15,8.5-26.45,1.04-5.87,1.58-11.91,1.58-18.07,0-4.03-.23-8.02-.69-11.93-1.06-9.24-3.35-18.11-6.69-26.45-4.44-11.07-10.73-21.2-18.5-30-18.97-21.51-46.72-35.09-77.59-35.09s-58.61,13.58-77.58,35.09c-2.3,2.61-4.48,5.34-6.51,8.17-1.32-.85-2.67-1.62-4.05-2.33-1.55-.82-3.15-1.54-4.77-2.17-6.08-2.42-12.6-3.67-19.25-3.67-.82,0-1.64.02-2.46.07C71.27,40.75,113.92,14.59,162.57,14.59s91.26,26.13,114.59,65.09c1.2,2.01,2.35,4.05,3.45,6.12,9.85,18.6,15.43,39.79,15.43,62.26ZM247.64,151.13c0,5.1-.4,10.11-1.19,15H102.75v-30h143.7c.79,4.89,1.19,9.9,1.19,15ZM238.12,192.58c-5.59,11.48-13.42,21.67-22.92,30h-101.75c-1.52-9.5-5.17-18.56-10.7-26.47v-3.53h135.37ZM238.12,109.68H97.77c-2.55-5.38-6.02-10.34-10.35-14.67-.29-.29-.59-.58-.89-.86,3.96-5.28,8.46-10.13,13.42-14.47h115.25c9.5,8.33,17.33,18.52,22.92,30Z"/></svg>